<mxfile host="app.diagrams.net" agent="Mozilla/5.0 (Windows NT 10.0; Win64; x64) AppleWebKit/537.36 (KHTML, like Gecko) Chrome/130.0.0.0 Safari/537.36 OPR/115.0.0.0" version="25.0.3">
  <diagram name="Page-1" id="p-ee1HAVX4pXNNftVsPH">
    <mxGraphModel dx="1971" dy="1056" grid="0" gridSize="10" guides="1" tooltips="1" connect="1" arrows="1" fold="1" page="1" pageScale="1" pageWidth="827" pageHeight="1169" math="0" shadow="0">
      <root>
        <mxCell id="0" />
        <mxCell id="1" parent="0" />
        <mxCell id="UIj85bmuPRxPEiiB4Lvx-1" value="Student" style="shape=umlActor;verticalLabelPosition=bottom;verticalAlign=top;html=1;outlineConnect=0;" parent="1" vertex="1">
          <mxGeometry x="30" y="384" width="45" height="90" as="geometry" />
        </mxCell>
        <mxCell id="UIj85bmuPRxPEiiB4Lvx-2" value="Admin" style="shape=umlActor;verticalLabelPosition=bottom;verticalAlign=top;html=1;outlineConnect=0;" parent="1" vertex="1">
          <mxGeometry x="747" y="161" width="45" height="90" as="geometry" />
        </mxCell>
        <mxCell id="UIj85bmuPRxPEiiB4Lvx-3" value="Warden" style="shape=umlActor;verticalLabelPosition=bottom;verticalAlign=top;html=1;outlineConnect=0;" parent="1" vertex="1">
          <mxGeometry x="747" y="629" width="45" height="90" as="geometry" />
        </mxCell>
        <mxCell id="82veBIiKG0TLpPmEvj1Y-7" value="" style="rounded=0;whiteSpace=wrap;html=1;fillColor=default;" vertex="1" parent="1">
          <mxGeometry x="146" y="53" width="530" height="911" as="geometry" />
        </mxCell>
        <mxCell id="82veBIiKG0TLpPmEvj1Y-8" value="&lt;font style=&quot;font-size: 18px;&quot;&gt;View Personal Info&lt;/font&gt;" style="ellipse;whiteSpace=wrap;html=1;" vertex="1" parent="1">
          <mxGeometry x="172" y="99" width="145" height="79" as="geometry" />
        </mxCell>
        <mxCell id="82veBIiKG0TLpPmEvj1Y-10" value="&lt;font style=&quot;font-size: 18px;&quot;&gt;Room Booking&lt;/font&gt;" style="ellipse;whiteSpace=wrap;html=1;" vertex="1" parent="1">
          <mxGeometry x="171" y="224" width="139" height="79" as="geometry" />
        </mxCell>
        <mxCell id="82veBIiKG0TLpPmEvj1Y-11" value="&lt;font style=&quot;font-size: 18px;&quot;&gt;Make a Payment&lt;/font&gt;" style="ellipse;whiteSpace=wrap;html=1;" vertex="1" parent="1">
          <mxGeometry x="171" y="370" width="143" height="79" as="geometry" />
        </mxCell>
        <mxCell id="82veBIiKG0TLpPmEvj1Y-12" value="&lt;font style=&quot;font-size: 18px;&quot;&gt;Provide Feedback&lt;/font&gt;" style="ellipse;whiteSpace=wrap;html=1;" vertex="1" parent="1">
          <mxGeometry x="170" y="527" width="149" height="79" as="geometry" />
        </mxCell>
        <mxCell id="82veBIiKG0TLpPmEvj1Y-13" value="&lt;font style=&quot;font-size: 18px;&quot;&gt;View Notifications&lt;/font&gt;" style="ellipse;whiteSpace=wrap;html=1;" vertex="1" parent="1">
          <mxGeometry x="168" y="679" width="145" height="79" as="geometry" />
        </mxCell>
      </root>
    </mxGraphModel>
  </diagram>
</mxfile>
